<svg version="1.2" xmlns="http://www.w3.org/2000/svg" viewBox="0 0 2948 227" width="2948" height="227">
	<title>TRINITY BANK_logo_OK-ai</title>
	<style>
		.s0 { fill: #231f20 } 
	</style>
	<g id="Vrstva 1">
		<g id="&lt;Group&gt;">
			<path id="&lt;Compound Path&gt;" fill-rule="evenodd" class="s0" d="m2048.3 167.5q0 12-4.4 22.5-4.5 10.4-13.3 19.3-8.9 9.1-25.5 13.5-16.4 4.4-40.4 4.4-5 0-11-0.1-5.8-0.2-11.9-0.5-6.3-0.3-14.2-0.4-7.5-0.1-17.8-0.1-9.9 0-17.9 0.2-8.1 0.3-14.8 0.9h-0.2q-2.5 0-3.4-2.9-0.7-1.8-0.6-5.2-0.1-3.4 0.6-5.3 0.9-2.8 3.4-2.8 14.1 0 21-4.5 6.4-4.2 6.4-12.7v-161.1q0-7.8-6.7-11.7-7.3-4.3-22.2-4.3c-2.8 0-4.2-2.7-4.2-8.1q0-3.4 0.7-5.3 1-2.8 3.5-2.8h0.1q9.3 0.5 19 0.7 9.5 0.3 20.1 0.3 10.7 0 17.6-0.2 7.3-0.1 11.8-0.3 4.5-0.3 9.7-0.4 5.5-0.1 11-0.1 14.4 0 26.5 3.4 12.1 3.4 21.9 10.2 10 6.9 15 17.2 5 10.3 5 23.9 0 16.8-8.4 29.1-8.2 12.3-24.7 19.9-0.4 0.2-0.7 0.4 0.2 0.1 0.4 0.2h0.1q9 2.9 17.4 8.2 8.2 5.3 15.7 13 7.7 7.9 11.6 18.3 3.8 10.4 3.8 23.2zm-114-72.2q0 4 11 4 28.2 0 42.1-11 13.7-10.8 13.7-32.6 0-41.4-60.2-41.4-3.3 0-4.9 2-1.7 2.2-1.7 7zm80.6 68.1q0-16.6-8.7-27.9-8.7-11.3-26.3-17.5-13.9-4.6-41.8-4.8v0.1q-3.8 0-3.8 2.9v62.7q0 17.3 7.1 25.7 6.9 8.3 21 8.3 26.5 0 39.5-12.3 12.9-12.3 13-37.2z"/>
			<path id="&lt;Compound Path&gt;" fill-rule="evenodd" class="s0" d="m2348.3 219.1q0 3.4-0.6 5.2-1 2.9-3.4 2.9h-0.1-0.1q-5.9-0.6-15.3-0.9-9.2-0.2-22.3-0.2-13.1 0-22.2 0.2-9.3 0.3-15.1 0.9h-0.2q-2.5 0-3.5-2.8-0.7-1.9-0.7-5.3 0-3.5 0.6-5.3 1.1-2.8 3.6-2.8 7.5 0 11-2.5 3.2-2.2 3.2-6.7 0-1.8-0.3-3.6-0.3-1.9-0.9-3.9l-16.5-51.1q-0.6-2-1.8-2.9-1.3-1-3.5-1h-66.5q-1.5 0-2.6 1h-0.1q-1.2 1.1-2 3.5l-18.5 51.3q-0.7 1.7-1 3.2-0.3 1.4-0.3 2.7 0 4.7 5 7.2 5.8 2.8 17.7 2.8 2.5 0 3.5 2.8 0.7 1.9 0.7 5.3 0 3.4-0.7 5.3-1 2.8-3.5 2.8h-0.2q-7-0.6-15.5-0.9-8.5-0.2-19.1-0.2-10.6 0-19 0.2-8.5 0.3-15.4 0.9h-0.2q-2.5 0-3.5-2.8-0.7-1.9-0.7-5.3 0-3.5 0.7-5.3 1-2.8 3.5-2.8 7.7 0 12.8-1.2 4.8-1 7-2.9 2.4-2.1 5-6.2 2.6-4.1 5.3-10.1l61.5-161.1q0.5-1.3 0.7-2.3 0.2-1 0.2-1.9 0-1.4-1.6-3-1.2-1.2-1.8-2.2-0.9-1.3-0.9-2.3 0-1.5 2.4-3.2 1.7-1.2 5.1-3 3.2-1.8 7-4.2 3.7-2.4 7.9-5.3 4.4-3 7.1-4.6 3.1-1.7 4.6-1.7 2.8 0 4.8 2.5 1.7 2.1 2.8 6 2.1 8 4.1 14.6 2 6.9 3.9 12.5l54.3 161.8q3 8.8 10.2 13.3 7.4 4.5 19.4 4.5 2.4 0 3.4 2.8 0.6 1.9 0.6 5.3zm-89.4-95.6q0-0.4-0.2-1.1v-0.1l-27.8-86.8v-0.1q-0.4-1.2-0.8-1.7-0.2-0.1-0.3-0.1-0.2 0-0.4 0.2-0.5 0.5-0.9 1.7l-32.2 86.9v0.1q-0.1 0.2-0.2 0.5 0 0.2 0 0.5 0 0.3 0.1 0.4 0.5 0.3 1.9 0.3h58.7q1.4 0 2-0.3 0.1-0.1 0.1-0.4z"/>
			<path id="&lt;Path&gt;" class="s0" d="m2448.5 193.8v-150.9q0-7.9-1.7-13.3-1.7-5.2-5-7.9-3.4-2.8-8.8-4.3-5.6-1.5-13.2-1.5c-2.7 0-4.1-2.7-4.1-8.1q0-3.4 0.7-5.3 0.9-2.8 3.4-2.8h0.2q3.5 0.4 9.5 0.6 5.8 0.2 14.6 0.2c5.6 0 10.3 0.1 14.1 0.3q5.9 0.3 8.7 0.9 3 0.7 5.7 2.7 2.6 1.8 5 4.8l123.8 159.5v0.1q0.6 0.7 1.1 1h0.1q0.5 0.3 1.2 0.3 0.9 0 1.2-0.5 0.6-0.8 0.6-2.9v-133.8q0-8.4-6.1-12.6-6.5-4.4-19.9-4.4c-2.8 0-4.2-2.7-4.2-8.1q0-3.4 0.7-5.3 1-2.8 3.5-2.8h0.1 0.1q3.7 0.4 11.3 0.6 7.3 0.2 19.2 0.2 11.9 0 19.2-0.2 7.5-0.2 11.1-0.6h0.2q2.5 0 3.5 2.8 0.6 1.9 0.6 5.3 0 3.4-0.6 5.2-1 2.9-3.5 2.9-10.3 0-15.3 4.3-4.9 4.1-4.9 12.7v190.6q0 2.6-1 4.1-1.3 1.9-3.7 1.9-2.1 0-4.3-1.6-1.9-1.4-4.1-4l-141.5-178.8q-0.7-0.8-1.3-1.1-0.3-0.2-0.6-0.3-0.1 0.3-0.1 1v149.1q0 8.6 5.7 12.8 6 4.4 18.3 4.4 2.5 0 3.4 2.8 0.7 1.9 0.7 5.3 0 3.4-0.7 5.2-0.9 2.9-3.4 2.9h-0.1q-6.7-0.6-14.6-0.9-7.8-0.2-17.4-0.2-9.7 0-17.6 0.2-8 0.3-14.9 0.9h-0.2q-2.5 0-3.5-2.8-0.7-1.9-0.7-5.3 0-3.4 0.7-5.3 1-2.8 3.5-2.8 13.1 0 19.4-4.5 5.9-4.2 5.9-12.7z"/>
			<path id="&lt;Path&gt;" class="s0" d="m88.1 193.8v-171.5q0-2.9-1.4-4.2-1.4-1.4-4.5-1.4h-24.8q-20.9 0-31.1 10.7-10.3 10.7-10.3 32.5 0 2.5-2.8 3.5-1.9 0.7-5.3 0.7-3.4 0-5.3-0.7-2.8-1-2.8-3.5v-52.1q0-4 4.3-5.8 3.6-1.5 10.3-1.5c5 0 11.4 0 19 0.1q10.8 0.1 24.1 0.3 12.8 0.2 23.8 0.3c7.4 0.1 14.7 0.1 21.8 0.1 7.1 0 14.4 0 21.7-0.1q10.9-0.1 23.6-0.3 13.2-0.2 24.5-0.3c8-0.1 14.8-0.1 20.5-0.1q6.7 0 10.3 1.5 4.3 1.8 4.3 5.8v52.1q0 2.5-2.8 3.5-1.9 0.7-5.3 0.7-3.4 0-5.3-0.7-2.8-1-2.8-3.5 0-21.8-10.2-32.5-10.1-10.7-30.7-10.7h-26.4q-3.5 0-5 1.4-1.5 1.3-1.5 4.2v171.5q0 8.5 6.8 12.7 7.3 4.5 22.2 4.5 2.5 0 3.5 2.8 0.7 1.8 0.7 5.3 0 3.4-0.7 5.3-1 2.8-3.5 2.8h-0.1q-7.6-0.6-18.6-0.9-10.9-0.2-25.9-0.2-15 0-25.9 0.2-11 0.3-18.5 0.9h-0.2q-2.4 0-3.5-2.8-0.7-1.9-0.7-5.3 0-3.5 0.7-5.3 1.1-2.8 3.5-2.8 15.6 0 23.2-4.5 7.1-4.3 7.1-12.7z"/>
			<path id="&lt;Compound Path&gt;" fill-rule="evenodd" class="s0" d="m506.1 224.5q0 2.1-1 3.4-1.1 1.5-3.1 1.6-3.3 0.3-6.2 0.5-2.9 0.1-4.9 0.1c-19 0-33.7-3.8-43.9-11.4q-7.5-5.5-14.3-12.2-6.9-6.7-13.1-14.4-6.1-7.6-12.7-16.9-6.5-9.1-13.6-19.8-6.9-10.5-11.5-16.6-4.6-5.9-6.6-7.3-2-1.3-5-2-3.2-0.8-7.5-0.7c-2.7 0-5.2-0.1-7.4-0.2q-3.5-0.1-5.5-0.2c-1.3-0.2-2.3-0.3-3-0.4q-1-0.1-1.7-0.1-0.4 0-0.7 0.1-0.3 0.1-0.7 0.4-0.2 0.1-0.3 0.3-0.1 0.3-0.1 0.9v64.2q0 8.4 7 12.7 7.4 4.5 22.7 4.5 2.4 0 3.4 2.8 0.7 1.9 0.7 5.3 0 3.4-0.7 5.2-0.9 2.9-3.4 2.9h-0.1q-6.3-0.6-17.1-0.9-10.6-0.2-26.4-0.2-15.7 0-26.3 0.2-10.9 0.3-17.1 0.9h-0.1q-2.5 0-3.5-2.8-0.6-1.9-0.6-5.2 0-3.4 0.6-5.3 1-2.8 3.3-2.9h0.2q14.1 0 20.9-4.5 6.5-4.2 6.5-12.7v-161q0-7.9-6.8-11.8-7.2-4.3-22.1-4.3c-2.8 0-4.3-2.7-4.3-8.1q0-3.4 0.7-5.3 1.1-2.8 3.6-2.8 9.6 0.4 18.1 0.6 8.4 0.2 16.5 0.2c5.6 0 10.9 0 15.7-0.1q7.8-0.1 15.8-0.3 7.8-0.2 14.3-0.3c4.6-0.1 8.4-0.1 11.4-0.1q18.9 0 33.9 4 15.1 4 26.1 12.1 11.1 8.2 16.6 20 5.6 11.7 5.6 26.9 0 23.2-11.3 37.9-11.3 14.8-33.7 20.7-0.3 0.2-0.4 0.4-0.3 0.5-0.3 1.5 0 1.1 3.1 6.6 3.2 5.8 9.7 16 6.5 10.2 15.9 21.9 9.4 11.7 21.7 25.1 12.2 13.3 22 19.8 9.6 6.4 16.8 6.4 2 0 3.2 1.4 1 1.2 1 3.3zm-94.9-122.6q15.1-12.7 15.1-38.4 0-10.3-4.1-19-4.1-8.6-12.4-15.8-8.2-7.1-19.8-10.6-11.6-3.7-26.5-3.6h-14.5q-3.2 0-4.7 0.9-1 0.7-1 2.2v91.5q0 1.7 1 2.7 1.1 1.2 3.7 1.7 2.9 0.6 7.2 0.9 4.3 0.4 9.9 0.4 30.8 0 46.1-12.9z"/>
			<path id="&lt;Path&gt;" class="s0" d="m602 193.8v-161q0-8.3-6.8-12.5-7.2-4.4-22.1-4.4c-2.8 0-4.2-2.7-4.2-8.1q0-3.4 0.7-5.3 1-2.8 3.5-2.8h0.1 0.1q3.6 0.4 14.2 0.6c6.9 0.1 16.5 0.2 28.7 0.2q18.4 0 28.8-0.2 10.6-0.2 14.3-0.6h0.1 0.1q2.4 0 3.4 2.8 0.6 1.9 0.6 5.3 0 3.4-0.6 5.3-1 2.8-3.4 2.8-14.2 0-21 4.4-6.5 4.1-6.5 12.5v161q0 8.5 6.5 12.7 6.8 4.5 21 4.5 2.4 0 3.4 2.8 0.6 1.9 0.6 5.3 0 3.4-0.6 5.2-1 2.9-3.4 2.9h-0.2q-7.1-0.6-17.5-0.9-10.3-0.2-24.6-0.2-14.4 0-24.7 0.2-10.4 0.3-17.5 0.9h-0.1q-2.4 0-3.4-2.9-0.7-1.8-0.7-5.2 0-3.4 0.7-5.3 1-2.8 3.4-2.8 14 0 20.7-4.5 6.4-4.2 6.4-12.7z"/>
			<path id="&lt;Path&gt;" class="s0" d="m770.6 193.8v-150.9q0-7.9-1.7-13.3-1.7-5.2-5-7.9-3.4-2.8-8.8-4.3-5.6-1.5-13.3-1.5c-2.6 0-4-2.7-4-8.1q0-3.4 0.6-5.3 1-2.8 3.4-2.8h0.1 0.2q3.5 0.4 9.5 0.6 5.8 0.2 14.6 0.2 8.4 0 14.1 0.3 5.9 0.3 8.7 0.9 3 0.8 5.7 2.7 2.6 1.8 5 4.8l123.8 159.5v0.1q0.5 0.7 1.1 1 0.6 0.3 1.3 0.3 0.8 0 1.2-0.5 0.6-0.8 0.6-2.9v-133.8q0-8.4-6.2-12.6-6.5-4.4-19.8-4.4c-2.8 0-4.2-2.7-4.2-8.1q0-3.4 0.7-5.3 1-2.8 3.5-2.8h0.2q3.7 0.4 11.3 0.6 7.3 0.2 19.2 0.2 11.8 0 19.2-0.2 7.5-0.2 11.1-0.6h0.1 0.1q2.4 0 3.4 2.8 0.7 1.9 0.7 5.3 0 3.4-0.7 5.3-1 2.8-3.4 2.8-10.4 0-15.4 4.3-4.8 4.1-4.8 12.7v190.6q0 2.6-1.1 4.1-1.2 1.9-3.6 1.9-2.1 0-4.3-1.6-2-1.4-4.1-4l-141.5-178.8q-0.7-0.8-1.3-1.1-0.4-0.2-0.7-0.3 0 0.3 0 1v149.1q0 8.6 5.7 12.8 5.9 4.4 18.3 4.4 2.4 0 3.4 2.8 0.6 1.9 0.6 5.3 0 3.4-0.6 5.2-1 2.9-3.4 2.9h-0.1-0.1q-6.6-0.6-14.5-0.9-7.9-0.2-17.5-0.2-9.6 0-17.5 0.2-8 0.3-15 0.9h-0.1q-2.5 0-3.5-2.8-0.7-1.9-0.7-5.3 0-3.4 0.7-5.3 1-2.8 3.5-2.8 13 0 19.3-4.5 6-4.2 6-12.7z"/>
			<path id="&lt;Path&gt;" class="s0" d="m1074.2 193.8v-161q0-8.3-6.8-12.5-7.2-4.4-22.1-4.4c-2.8 0-4.2-2.7-4.2-8.1q0-3.4 0.7-5.3 1-2.8 3.5-2.8h0.1 0.1q3.5 0.4 14.2 0.6c6.9 0.1 16.5 0.2 28.7 0.2 12.2 0 21.8-0.1 28.7-0.2q10.7-0.2 14.4-0.6h0.1 0.1q2.4 0 3.4 2.8 0.6 1.9 0.6 5.3 0 3.4-0.6 5.3-1 2.8-3.4 2.8-14.2 0-21 4.4-6.5 4.1-6.5 12.5v161q0 8.5 6.5 12.7 6.8 4.5 21 4.5 2.4 0 3.4 2.8 0.6 1.9 0.6 5.3 0 3.4-0.6 5.2-1 2.9-3.4 2.9h-0.2q-7.1-0.6-17.5-0.9-10.3-0.2-24.6-0.2-14.4 0-24.7 0.2-10.4 0.3-17.5 0.9h-0.1q-2.5 0-3.4-2.9-0.7-1.8-0.7-5.2 0-3.4 0.7-5.3 0.9-2.8 3.4-2.8 14 0 20.7-4.5 6.4-4.2 6.4-12.7z"/>
			<path id="&lt;Path&gt;" class="s0" d="m1294.9 193.8v-171.5q0-2.9-1.3-4.2-1.5-1.4-4.6-1.4h-24.8q-20.9 0-31.1 10.7-10.3 10.7-10.3 32.5 0 2.5-2.8 3.5-1.9 0.7-5.3 0.7-3.4 0-5.3-0.7-2.8-1-2.8-3.5v-52.1q0-4 4.3-5.8 3.6-1.5 10.3-1.5c5 0 11.4 0 19 0.1q10.9 0.1 24.1 0.3 12.8 0.2 23.9 0.3c7.3 0.1 14.6 0.1 21.7 0.1 7.1 0 14.4 0 21.7-0.1q10.9-0.1 23.6-0.3 13.2-0.2 24.5-0.3c8-0.1 14.8-0.1 20.5-0.1q6.7 0 10.3 1.5 4.3 1.8 4.4 5.8v52.1q-0.1 2.5-2.9 3.5-1.9 0.7-5.3 0.7-3.4 0-5.3-0.7-2.8-1-2.8-3.5 0-21.8-10.2-32.5-10.1-10.7-30.7-10.7h-26.4q-3.5 0-5 1.4-1.5 1.3-1.5 4.2v171.5q0 8.5 6.9 12.7 7.2 4.5 22.1 4.5 2.5 0 3.5 2.8 0.7 1.8 0.7 5.3 0 3.4-0.7 5.3-1 2.8-3.5 2.8h-0.1q-7.6-0.6-18.6-0.9-10.8-0.2-25.9-0.2-15 0-25.9 0.2-11 0.3-18.5 0.9h-0.2q-2.4 0-3.5-2.8-0.7-1.9-0.7-5.3 0-3.5 0.7-5.3 1.1-2.8 3.5-2.8 15.6 0 23.2-4.5 7.1-4.3 7.1-12.7z"/>
			<path id="&lt;Path&gt;" class="s0" d="m1504.7 33.8q-5.4-9-12.7-13.5-7.3-4.4-16.3-4.4c-2.7 0-4.1-2.7-4.1-8.1q0-3.4 0.7-5.3 0.9-2.8 3.4-2.8h0.2q3.6 0.4 13.1 0.6 9.3 0.2 25.4 0.2 16 0 25.4-0.2 9.6-0.2 13.4-0.6h0.1 0.1q2.4 0 3.4 2.8 0.7 1.9 0.7 5.3 0 8.1-4.1 8.1-9.5 0-14 2.1-3.8 1.8-3.8 5.3-0.1 1.6 0.7 3.6 0.8 2.2 2.4 4.9l45.9 77v0.1q0.5 0.9 0.9 1.2 0 0 0 0 0.5-0.4 1-1.3l48.7-75.6q2.1-3.3 3.1-6 1-2.5 1-4.5 0-3.2-3.4-4.8-4.2-2-12.8-2c-2.8 0-4.2-2.7-4.2-8.1q0-3.4 0.7-5.3 1-2.8 3.5-2.8h0.2q3.7 0.4 11.7 0.6 7.7 0.2 20.5 0.2 12.6 0 20.4-0.2 7.9-0.2 11.5-0.6h0.1 0.1q2.4 0 3.4 2.8 0.7 1.9 0.7 5.3 0 3.4-0.7 5.3-1 2.8-3.4 2.8-10.9 0-19.1 4.2-8.2 4.3-13.8 12.8l-50.2 77.2q-5.3 8-8.2 13.3-2.7 5-3.2 7.2-0.4 2.2-0.6 5.6-0.3 3.4-0.3 8.1v49.5q0 17.2 24.9 17.2 2.4 0 3.4 2.8 0.6 1.9 0.6 5.3 0 3.4-0.6 5.2-1 2.9-3.4 2.9h-0.1-0.1q-6.1-0.6-16-0.9-9.7-0.2-23.7-0.2-14 0-23.7 0.2-9.9 0.3-16 0.9h-0.1q-2.5 0-3.4-2.9-0.7-1.8-0.7-5.2 0-3.4 0.7-5.3 0.9-2.8 3.4-2.8 12.8 0 19-4.5 5.8-4.2 5.8-12.7v-49.2q0-8-1.1-13.8-1.1-5.7-3.1-9.2l-53.3-87.8z"/>
			<path id="&lt;Path&gt;" class="s0" d="m1599.2 110.2q-0.1 0 0 0 0 0 0 0z"/>
			<path id="&lt;Path&gt;" class="s0" d="m2834.1 104c2.1 3.1 70.8 90.7 70.8 90.7q6.6 8.1 16.2 12.2 9.7 4 22.5 4.1 2.5 0 3.5 2.8 0.7 1.8 0.7 5.3 0 3.4-0.7 5.3-1 2.8-3.5 2.8h-0.2q-6.3-0.6-17.3-0.9-10.7-0.2-26.4-0.2-15.8 0-26.4 0.2-10.8 0.3-17 0.9h-0.2q-2.5 0-3.5-2.8-0.7-1.8-0.7-5.2 0-3.4 0.7-5.3 0.9-2.8 3.4-2.9h0.1q7.3 0 10.7-2.2 3-1.8 3-5.6 0-1.6-0.8-3.6-1-2.1-2.8-4.7l-43.9-57.6c-2.9-3.6-6.2-7.4-8-8.8-1.9-1.3-6-2.3-9.4 0.7-2.8 2.5-22.4 23.4-22.5 23.5q-0.3 0.4-0.3 1.6v39.5q0 8.5 6.5 12.7 6.8 4.5 21 4.5 2.4 0 3.4 2.8 0.6 1.9 0.6 5.3 0 3.4-0.6 5.2-1 2.9-3.4 2.9h-0.2q-6.2-0.6-16.7-0.9-10.4-0.2-25.6-0.2-15.1 0-25.5 0.2-10.5 0.3-16.7 0.9h-0.2q-2.5 0-3.4-2.8-0.6-1.9-0.6-5.2 0-3.4 0.6-5.3 0.9-2.8 3.3-2.9h0.1q14.1 0 21-4.5 6.5-4.2 6.5-12.7v-161.1q0-8.2-6.8-12.4-7.3-4.4-22.2-4.4c-2.8 0-4.2-2.7-4.2-8.1q0-3.4 0.7-5.3 1.1-2.8 3.5-2.8h0.1 0.1q3.7 0.4 14.5 0.6 10.4 0.2 29.1 0.2 18.6 0 29.1-0.2 10.9-0.2 14.6-0.6h0.1 0.1q2.4 0 3.4 2.8 0.7 1.9 0.7 5.3 0 8.1-4.1 8.1-14.8 0-22 4.4-6.8 4.2-6.8 12.4v94.1q0 1.3 0.3 1.8c2.6 0 29.3-32.8 30.7-34.4q2.1-2.3 3-3.5l47.9-59.6q3.1-4.1 4.7-7.1 1.4-2.8 1.4-4.5 0-1.6-1.7-2.4-2.2-1.2-7-1.2-4.1 0-4.1-8.1 0-8.1 4.1-8.1h0.1 0.1q3.6 0.4 10.9 0.6 7.1 0.2 18.4 0.2 11.4 0 18.5-0.2 7.3-0.2 11-0.6h0.2 0.1q2.4 0 3.5 2.8 0.7 1.9 0.7 5.3 0 3.4-0.7 5.3-1.1 2.8-3.5 2.8-6.7 0-12.1 1.3-5.3 1.4-9.2 4-4.2 2.6-6.8 4.7-2.6 2-3.8 3.3c0 0-53.4 64.7-54.9 66.5-1.5 1.9-1.9 5.1 0.2 8.3z"/>
		</g>
	</g>
</svg>